<svg width="1410" height="431" viewBox="0 0 1410 431" fill="none" xmlns="http://www.w3.org/2000/svg">
<path fill-rule="evenodd" clip-rule="evenodd" d="M-32.68 230.88C-32.68 230.88 93.0009 357.037 277.06 357.037C461.119 357.037 517.593 215.514 724.077 230.767C930.561 246.02 1038.91 324.338 1217.37 336.091C1564.48 358.95 1809 282.561 1809 282.561L1715.67 425.617L-87 387.712L-32.68 230.88Z" fill="#E1BEE7"/>
<path fill-rule="evenodd" clip-rule="evenodd" d="M1797.59 213.468C1797.59 213.468 1688.87 354.024 1505.07 363.654C1321.27 373.285 1315.77 290.759 1110.38 316.769C904.987 342.779 906.289 388.029 728.691 409.084C650.148 418.395 498.452 194.945 201.945 322.715C-94.5623 450.485 -584.688 124.424 -584.688 124.424L-167.493 410.162L1797.46 425.76L1797.59 213.468Z" fill="#DCEDC8"/>
<path fill-rule="evenodd" clip-rule="evenodd" d="M-34.2444 325.982C-34.2444 325.982 3.15317 409.837 165.378 409.837C327.602 409.837 370.788 289.756 552.778 304.946C734.767 320.136 830.26 398.133 987.556 409.837C1293.49 432.602 1509 356.527 1509 356.527L1492.53 437.617L-51 422.056L-34.2444 325.982Z" fill="white"/>
</svg>
